<svg xmlns="http://www.w3.org/2000/svg"
     xmlns:xlink="http://www.w3.org/1999/xlink"
     width="90" height="22" style="">
    <title>logo devcast.pl</title>

    <rect id="backgroundrect" width="100%" height="100%" x="0" y="0" fill="#000000" stroke="none"/>
    <g class="currentLayer" style="">

        <title>D</title>
        <line x1="1" y1="1" x2="1" y2="21" stroke="white"
              stroke-opacity="1" stroke-width="2"
              stroke-dasharray="none" stroke-linejoin="round"
              opacity="1" />
        <line x1="1" y1="1" x2="11" y2="11" stroke="white"
              stroke-opacity="1" stroke-width="2"
              stroke-dasharray="none" stroke-linejoin="round"
              opacity="1" />
        <line x1="11" y1="11" x2="1" y2="21" stroke="white"
              stroke-opacity="1" stroke-width="2"
              stroke-dasharray="none" stroke-linejoin="round"
               opacity="1" />

        <title>E</title>
        <line x1="14" y1="11" x2="24" y2="21" stroke="white"/>
        <line x1="14" y1="11" x2="24" y2="1" stroke="white"/>
        <line x1="17" y1="11" x2="24" y2="11" stroke="white"/>

        <title>V</title>
        <line x1="27" y1="1" x2="33" y2="21" stroke="white"/>
        <line x1="39" y1="1" x2="33" y2="21" stroke="white"/>

        <title>C</title>
        <line x1="41" y1="11" x2="51" y2="21" stroke="white"
              stroke-opacity="1" stroke-width="2"
              stroke-dasharray="none" stroke-linejoin="round"
              opacity="1" />
        <line x1="41" y1="11" x2="51" y2="1" stroke="white"
              stroke-opacity="1" stroke-width="2"
              stroke-dasharray="none" stroke-linejoin="round"
              opacity="1" />

        <title>A</title>
        <line x1="54" y1="21" x2="60" y2="1" stroke="white"/>
        <line x1="66" y1="21" x2="60" y2="1" stroke="white"/>
        <line x1="59" y1="11" x2="61" y2="11" stroke="white"/>

        <title>S</title>
        <line x1="77" y1="1" x2="69" y2="7" stroke="white"/>
        <line x1="69" y1="7" x2="77" y2="14" stroke="white"/>
        <line x1="77" y1="14" x2="69" y2="21" stroke="white"/>

        <title>T</title>
        <line x1="84" y1="1" x2="84" y2="21" stroke="white"/>
        <line x1="79" y1="12" x2="82" y2="10" stroke="white"
              stroke-opacity="1" stroke-width="2"
              stroke-dasharray="none" stroke-linejoin="round"
              opacity="1" />
        <line x1="82" y1="10" x2="86" y2="12" stroke="white"
              stroke-opacity="1" stroke-width="2"
              stroke-dasharray="none" stroke-linejoin="round"
              opacity="1" />

        <line x1="86" y1="12" x2="89" y2="10" stroke="white"
              stroke-opacity="1" stroke-width="2"
              stroke-dasharray="none" stroke-linejoin="round"
              opacity="1" />

    </g>
</svg>
